/* XPM */
static char *d3b26a132eff41bcc4cc865afcd1aa9fIZ5TjxxzID41O55F[] = {
/* columns rows colors chars-per-pixel */
"64 64 104 2 ",
"   c #8A5040",
".  c #915244",
"X  c #955B4D",
"o  c #995A4A",
"O  c #905647",
"+  c #8A4D3D",
"@  c #86493B",
"#  c #8C5143",
"$  c #935649",
"%  c #8D5446",
"&  c #8D4D3F",
"*  c #894A3C",
"=  c #8E5442",
"-  c #8F4F42",
";  c #9B5D4E",
":  c #915947",
">  c #854636",
",  c #985D50",
"<  c #96574A",
"1  c #894838",
"2  c #864C3F",
"3  c #955A49",
"4  c #91513F",
"5  c #935544",
"6  c #7D4535",
"7  c #9C6152",
"8  c #824939",
"9  c #814537",
"0  c #814B3D",
"q  c #DFCDBC",
"w  c #E1D1BF",
"e  c #885344",
"r  c #975645",
"t  c #D4C5B3",
"y  c #D1C0AD",
"u  c #E3D4C3",
"i  c #DAC9B7",
"p  c #814F3E",
"a  c #F2DCCE",
"s  c #865040",
"d  c #A98475",
"f  c #A06555",
"g  c #985D4C",
"h  c #BAA997",
"j  c #7D4939",
"k  c #915C4D",
"l  c #754132",
"z  c #E8D3C3",
"x  c #7C5445",
"c  c #A06051",
"v  c #9E5C4B",
"b  c #916251",
"n  c #8F4D3C",
"m  c #EBDCCB",
"M  c #E6CDBD",
"N  c #824233",
"B  c #916959",
"V  c #E7D7C7",
"C  c #B7A18D",
"Z  c #AE8A79",
"A  c #D5BCAB",
"S  c #95705F",
"D  c #A66658",
"F  c #8C5B4B",
"G  c #EBD7C8",
"H  c #885647",
"J  c #945046",
"K  c #874D3B",
"L  c #886252",
"P  c #C7B6A3",
"I  c #F1E0D0",
"U  c #D9CCBA",
"Y  c #794E40",
"T  c #A38070",
"R  c #A07C6C",
"E  c #E0C8B5",
"W  c #B69885",
"Q  c #DBC3B2",
"!  c #CBBAA9",
"~  c #C9B09D",
"^  c #D2B6A5",
"/  c #6E392B",
"(  c #7C3F2F",
")  c #9D7261",
"_  c #825C4D",
"`  c #AD9B86",
"'  c #EFD7CA",
"]  c #987567",
"[  c #C1A392",
"{  c #A8957F",
"}  c #B29080",
"|  c #BE998A",
" . c #C1AC9A",
".. c #825849",
"X. c #9A6C5A",
"o. c #C2B0A0",
"O. c #754839",
"+. c #DBBFAE",
"@. c #F7E2D4",
"#. c #EDD4C2",
"$. c #A17965",
"%. c #A28677",
"&. c #E4C9B7",
"*. c #AA6E60",
/* pixels */
"m w w t P  .C h h ` h h o.P  .C { ` ` ` h ` P y P y ! P U t y t U t t ! ! ! P ! ! P P o.! U V t ! ! ! t t y t q t i t y q q V V ",
"m m u m z ' w U U U q q u V q q w U U U U w w w u V I m I m m m I I I m I I u V m G I m m @.@.m m q q m m G @.I m G w V m m I m ",
"w V U ! z a z m a ' a I @.@.@.a a @.a ' a ' a a G a a z a a ' G a z M z m u w u ^ C  .+.^ A q o.h Q Q ~  .^  .~  .^ +.A  .C ~ ~ ",
"y U t _ x ) Z } | | W d d d T d d Z | | d } } R d W d S ] ] S B ) B L L ] ! w q L O.x Y Y O.x x Y ..x x Y x Y Y x Y Y Y O.O.x x ",
" .M a R / 8 0 p H e p j j K 6 8 j 0 0 s l e k 0 6 k % e p 0 j e # 2 2 p ..A z G X.j % j 0 k e 0 % % 6 2 X , , % %   9 9 $ $ @ 2 ",
" .M ' d 2 J < * 3 3 + 4 > r v r v o 4 5 1 v r 1 4 v 4 r 4 n 4 1 n v . 2 F ^ ' M k ( # - < - J * & J J J * J ; - & J * < - J & * ",
"h w #.S 6 J n > K 5 ( * n r o r 5 1 n N > r n 1 4 4 1 1 n n 4 n 4 4 - s F ^ V U p 9 O @ 9 2 . * + . + + N & J * @ - + N * - * * ",
"h w z B l 5 > K : 3 = = $ 8 @ O * * & $ - 9 * - > 1 @ N < & N o : + K k B ^ u w p j j 8 8 9 % 2 #   3 = = $ g   8     6 6 = K   ",
"h q #.S 6 . $ 0 s # 2 #   O O @ N . 1 v & 1 & . 1 1 4 r o N 4 5   o r # ..P w U 0 8   9   * & @ @ #   # . + $ @ . r * - > - * * ",
"o.q #.B # r < s O     # 9 $ $ O * & N > ; c > * D 5 > + K + c 5 = n 1 ( x ^ m t e # % X X @ 8   # @ 2 8 % 8 O # = $ . g K 9   # ",
"h z M X.@ 1 & 8 . . @ * < + . < = = :   g g : 3 g 3 : : : g f : = o 1 & ) +.w y F % 2 s : % 2 2 X 2 O # 8 2 : 8 2 0 j k % s s : ",
"! i &.X.@ > & - * * . < ; > * - 3 4 5 & + ; 5 o 5 o o D c o o D > > r - B ^ i Q s @ s 2 O # . > % # # 7 % # 2 2   8 8 O % O 9 s ",
"h t &.b 9 r . # $ o 7 ; o & * $ o 1 1 4 n v D c 4 c D c 1 n > o = 4 r @ Y ~ M Q X & $ & @ J < $ - < < < . $ . . O O % @ % X $ # ",
" .u M S s f % 7 f X # g , , O , o N > r N > c 4 N r v v r 1 5 ; 7 5 o 2 B E a A s 6 3 < 9 X f @ @ 7 , f X f % f X X 7 9 X f   9 ",
"i V &.x p 6 / ..7 %   2 X 2 3   X % # O s X s 6 O 3 6 K   K = : : = 5 p B E w ~ Y j H F j p l l p l l p O.O.l j O./ e j j l l p ",
"P t ~ S R X.R S j b b k | X.k H ) X.B R ) $.F B $.X.b b F X.X.$.) $.X.R T  .! o.W Z T R $.B S d T S R R S ] $.B R S $.$...S L $.",
"P y t t t y q y C P ^ ~ P ~  .[ ~ [ h ~ P ~  .+.A +.+.&.A t i y U U t u u w t t t y t i w t q y y i t i U q i i w t y E E E y i ",
"Q M Q i z q w u w u V V w q q q z G z w u q q z u a a @.G m m V I u m m I I m a m V I @.I a I a a #.a a I a a G w i w A A E E Q ",
"L _ ] W ~ +.A E z G ' z M M z M M M &.E q u q q i C } [ ~  . .^ W | ~ [ [ W | [ A +.C [ ~ } d } W d Z Z T T T [ i z ~ x ..L L _ ",
"l l F x x B B _ B R Z ] L B B L L B _ .._ ] y V E x O.p O.O.l p Y Y Y Y l / l p Y O./ ..b H j j 0 6 H 2 j Y O.S q ' A O.p s / 0 ",
"$   % s H b F e l 8 k % % s K 8 O   #   p L Q z #.b 2 $ @ e , O 2 2 6 9 0 , 9 8 @ @ 9 o o 5 o 4 = + & J X e p ) w G ^ O.2 - - < ",
"9 & . 2 $ X % g N 5 v 4 r n n n > 4 v 4 > b +.#.+.e 9 J J J & J @ 2   + < o 1 > > 1 > r J n n n + 4 > r 5 # j ) q G [ /   . > * ",
"6 8 + K - & @ N ( . 4 1 1 4 * -   5 4 4 + b A V +.Y @ J > 6 2 %   @   $ 5 > N . @ / @ @ @ N > r N 1 v r > = H $.U G [ / # > > ( ",
"  ( K + ( + & 1 & N - . * o > 9 k : + & X B y u Q O.2 9 8 j 0 e 2 9 @ ; N . 1 & O l p j K = 3 : ( 4 5 r r : H $.t G [ /   N @ K ",
"$ . $ *   f ; 7 . * + 5 < 5 N 5 =   o 5 0 L A u A l * - @ # 8 # * * 9 . * r r 4 9 l % 7 K K & 1 * f = . n + / S i ' | 6 J J . : ",
"X #   $ X g : = = D   K + > . D 5 5 n > l L A m ^ p . J $ X 8 8   = $ 3 > > v 4 8 ( g f 5 = K . ; D + 3 4 > p d U #.W e . & O k ",
"O 2 2 O : :   @ : 3 3 3 3 g ; D 5 5 r * % T Q u ^ ..% * # O % K   % %   9 @ & K K 6 + 3 3 g f f ; f g 1 1 3 e } t w | l   @ # % ",
"  + . & > 1 > 4 + 5 v o D c o v D N 1 o 0 S A q ^ j 2 - # % = = @ @   . 5 & + 4 4 ( + v c D o n n 4 ; > r r l B t M | j % . + # ",
"8 . $ + * > n o * n c D v 1 n N o 5 4 5 j x A w ^ k - < @ 8 $ o < # * & & N n * o > N > v c r n 1 4 v v r r 8 T z ' | 0 @ ; * @ ",
"0 k e l , , @ 8 + ( $ 5 o 5 > < 7 c 3 g p $.M a ~ O.6 < O 0 ; c 9 6 2 6   5 $ 3 7 8 @ = 3 @ 3 5 - ; ; r v X p W ' ' d / 0 X H 0 ",
"L B ] S B B F j H b k p k k e : :   = e p ] M z [ x e b F Y j / Y ..O./ 0 e e p Y Y b ) H p p p H F B b F F L %.! y W R ) S B L ",
"A C ` W W T T d d R Z d T d S ..b b b b $.R W C { Z d S S ] S ) d d } R S T d T T %.} W } Z Z d R Z Z T Z d %.{ %.{ { W W ` ~ y ",
"! ! P ! !  .P o.P  .h h h C ` { ` C C C C ` ` { { ` ` { ` C C h C ` h  .~ ~ o.P P P o. .o.o.P P  .h h h h h o.P o.o.o.! y ! y P ",
"y U w V z M z q w z q u i t ! y t t y y y t t i t y y y ! y t t y t y y t i t U q i q w q w u w q i i w w w u q w u u V G I G i ",
"u w u q &.+.&.E &.Q Q ^ A M ' #.M ' ' ' a a G ' G z G z q Q M q q M E i i w u t P A Q +.A A Q A A Q +.A A Q E E M Q E E Q E E A ",
"h i w %.x F L L S L _ x Y S T d S S T T } T ] B B ] B _ _ L L _ Y Y x x T y z S Y .._ .._ ....x x ....x _ ..S L L L _ _ L ..x x ",
"h w a R / s 0 0 0 j 0 % e e 2 0 j j l l j 0 j 0 6 s 8 6 l 6 s % j 9 2 l d E M | s 6 0 e s j s % 0 j % % 2 0 0 0 2 0 0 l s e % O ",
"h u ' d j 2 X s # D $ . < . ( N & 4 4 o > r 1 + 5 + + 1 > > + 1 @ 1 & @ Z E M | 6 + < & - & < < . $ $ < - 7 , * < $ * . > < . < ",
"h u #.) % < f e   # # % 6 2 2 9 & + & ( 1 1 N N * * + & & 1 ( / 6 1 1 9 Z Q #.Z 8 O : : g     7 O 2 7 # # # # 2 ; g 3 O ( + ; K ",
"h q ' B 0 . = e e e : k 8 8 s 9 2     / + $ . + = 2 < 7 @ + % = s + N 6 [ t z W 8 f = 8   = :   0 e X 2 O O # O   = s O = : = K ",
"h U #.B 8 * 6 e k % , % # = 6 N - . @ - - o & ( 1 * * + ( - & * @ 6 O 0 Z w u $.8 = : 6 s : g O : g 3 # 7 O = $ 6 6   # 8 g : % ",
" .w #.L j - $ % s X % % O 3 + > & 5 & < - N N 1 & @ > 1 + o > & > / K / Z u w b = X 9   f g # : 3 # X   8 3 = + : # #   =   3 9 ",
"o.V M S O J . 7 $ , O $ # 6 K K & & - $ < $ < @ 9 & . . - & o o &   ( ( } U z F # 7 X 7 X     , O 0 k k % , k , X   O X 2 # , 3 ",
"! Q M B 8 J < , O , , , 7 8 s 3 > . @ . * 3 c * > & + * - + ; - -   5 * | i #.X.8 , 7 3 % D *.# , *., % 7 7 : : X # % X $ *.% X ",
"h i M B 2 J X 8 2 X X 7 g K 3 =   . @ O = : @ O O   9   8 (   @ > / = 9 T w G d 8 6 2 X % #   $ $ 2 & , f $ O 8 O O # % $ #   f ",
"o.G M S 0 < k e H % % , s # g : = + + #   # = 9 8 : 3 = =   = O @   : / ] U I $.s F % F H 0 , k 2 % , X , # $ # F k F e k k k , ",
"U V Q x j D b b H F F : s : g 5 K 8 #   9 : D 3   = ( 6 3 @ O f 3 s 8 8 [ U I Z b b b H H k H s e k p e F F H k k X.b k b s p H ",
" .t ^ d b s F ..x x ) H / l K O % 6 j O e l p p s l j : 6 l e % p F O.F [ U u Z T b x ..x x b ) x ..) B S L x x F ..Y x B L R b ",
"C P C ` ` W C W [ W | W d R Z | } %.%.Z | [ W C [ d W W W ~ } } W C [ C `  . .%.{ { { { { { { { ` { { { ` ` C C W C { C C h  .C ",
"i t t i t w V V i t y P h h  .h C h  .h i ' w V q w q i q t y w q q w u u i q u w V i ! t y y y y y y y U w u V m G i U w w q i ",
"q w I m u u V I m V m u u V U w w w q V @.y i m I @.I I I V V I a @.' a @.a G a @.a a ' ' ' a ' M #.a z G w z V u w V z a G q z ",
"%.%.T C C t i i A ~ ^ ^ ^ +.A A +.&.Q C C P q h [ [ %.} %.%.%.%.Z d ] d | } Z Z R d } d R d d R Z ] ] S ] ] ] [ ! t ` W } R %.R ",
"H H O.O...) ] d X.H e p H / e b _ L k Y ] Q a ] l l 6 F j 0 p e p s p p j j s s 6 H j e k s e 6 / e 2 % k H Y } z M _ O.6 0 F Y ",
"7 g g 7 X 0 l : o c $ > ; * & < F O D e S Q a ) 9 D < c v o r v v v c o = + g o 4 & * o o 4 + ; 8 < ; J , D 0 d M #.s   f r f X ",
"9 * . ; ; o ; f c $ o $ ; o o < s v D @ d i #.d + c - @ + < 5 o & o 4 + g 3 g : r . r 4 r o ; o o r r - c f j | E M b 5 v n > # ",
"$ 2 O 7 o . o , 7   = : = O :   3 4 J # R t M R e , e e k , 7 X O 7 % O 6 $ : , X $ # $ 3 7 X # : = 5 o + % H Z q M L O v n # X ",
"O O 3 ; . $ D . ; + # 5 + f f + r ; f ; b ^ z $.  , < . X g     < ; @ < 7   X f : %   , 7 , < & D , + ; v c O $.t &.k 3 3 = = ; ",
"= O 8 + 7 < ; . ; < < ; o ; ; . v 3 f ; b ~ M Z $ + * $ . + . $ c o < - D $ 2 9 , , % # g X g o 7 X % ; v D : ) y &.X.: 9   O J ",
"= 7 O 6 < D o ; ; - < . c c ; o o ; O $ X.^ #.Z 2 + g , # 3 , 2 $ . < . % % X O # O ,   O $ $ f c 7 3 ; c J % $.Q M X.8 K ; X - ",
"g # $ : f D . < ; $ c f *.< 7 o n = O + b ~ M Z   , # % 7 f 7 7 D < ; g X X f X X , X X f % 7 *.. c O & J < j ) y &.) s 7   3 ; ",
"= : = O c > 5 o c D o < 5 > ; 5 n = s $ X.~ E Z k % 3 O # 8 $ $ - > - g $ g % , 7 7 X O $ , , + * ;   . & $ F T ! &.) 3 = 3   $ ",
"X 3   # ; @ . . - 5 5 + + + $ . 1 3 7 . $.P &.T 2 % # X $ # 2 9 & < - $ X   9 , X % % X O # , + n 5   * c , H Z y &.B     = g . ",
", : 3 ; *.o & ; < ; o f < . - < n g 7 7 X.P q Z 7 X , O f f 7 O 7 ; < . % 7 f 2 : 7 O , 3 O D c n 5 = $ ; f b R y E ) f : g = D ",
"= = @ 7 < < - r - + + - & + - . 4 s e # T t q Z k O 2 % O X 2 0 $ & * . $ 2 @ s : X # % $ # . ; n 5   # - O H } i E ) g   K : $ "
};
