/* XPM */
static char *_4f607502aa148e0cb9162922ef443cfW3eVtEpP2mLgkUGy[] = {
/* columns rows colors chars-per-pixel */
"64 64 256 2 ",
"   c #55562B",
".  c #6D6643",
"X  c #7B5D44",
"o  c #424030",
"O  c #4E512C",
"+  c #63612D",
"@  c #565D2F",
"#  c #616326",
"$  c #4A4B28",
"%  c #444D23",
"&  c #595231",
"*  c #504D2D",
"=  c #4D4F23",
"-  c #595F46",
";  c #595834",
":  c #4F5917",
">  c #505724",
",  c #5E6214",
"<  c #3E3C29",
"1  c #505533",
"2  c #4D4735",
"3  c #535B21",
"4  c #555026",
"5  c #564633",
"6  c #51472A",
"7  c #4F561C",
"8  c #49472C",
"9  c #5A5E0F",
"0  c #555C3A",
"q  c #63573A",
"w  c #515F18",
"e  c #5A5D27",
"r  c #575E1F",
"t  c #5A4E37",
"y  c #675E36",
"u  c #4F4D35",
"i  c #5C5F33",
"p  c #6D6E2C",
"a  c #574D2E",
"s  c #6C732D",
"d  c #767243",
"f  c #75593F",
"g  c #616925",
"h  c #425219",
"j  c #5D5A2D",
"k  c #795838",
"l  c #605734",
"z  c #5B5828",
"x  c #61572C",
"c  c #635033",
"v  c #6C5746",
"b  c #4D6519",
"n  c #484532",
"m  c #6C6D27",
"M  c #737C29",
"N  c #8A6954",
"B  c #654C39",
"V  c #434429",
"C  c #676824",
"Z  c #746E35",
"A  c #89684B",
"S  c #55553A",
"D  c #735438",
"F  c #796B3C",
"G  c #62603B",
"H  c #725D39",
"J  c #4A4028",
"K  c #6B503A",
"L  c #8D7754",
"P  c #523E2E",
"I  c #67692D",
"U  c #5C631E",
"Y  c #675740",
"T  c #816F45",
"R  c #606532",
"E  c #43381F",
"W  c #4C3520",
"Q  c #3F4620",
"!  c #5C6326",
"~  c #495521",
"^  c #674A2D",
"/  c #5E4D3C",
"(  c #666636",
")  c #83603E",
"_  c #745D42",
"`  c #745A49",
"'  c #79643F",
"]  c #826A55",
"[  c #7C6849",
"{  c #877050",
"}  c #555712",
"|  c #495D1F",
" . c #736B3C",
".. c #686F1B",
"X. c #6D653A",
"o. c #6C652C",
"O. c #6D7120",
"+. c #64661B",
"@. c #63523E",
"#. c #5A5746",
"$. c #877546",
"%. c #64694A",
"&. c #6F5541",
"*. c #5E4834",
"=. c #4B5219",
"-. c #8F7442",
";. c #62452A",
":. c #835536",
">. c #5B672B",
",. c #5A6821",
"<. c #5E4B2E",
"1. c #676C3D",
"2. c #836247",
"3. c #59452A",
"4. c #7B654D",
"5. c #727C17",
"6. c #A48D71",
"7. c #91795C",
"8. c #5D660A",
"9. c #63650E",
"0. c #8D6E4C",
"q. c #797822",
"w. c #5A6F1F",
"e. c #536226",
"r. c #7F723A",
"t. c #8C6944",
"y. c #6C6E3E",
"u. c #757050",
"i. c #73623D",
"p. c #71752F",
"a. c #6E5D3F",
"s. c #777536",
"d. c #766047",
"f. c #566518",
"g. c #6E563C",
"h. c #6A5D3C",
"j. c #987E5C",
"k. c #9A765B",
"l. c #766F25",
"z. c #686913",
"x. c #635C33",
"c. c #73542F",
"v. c #4E510F",
"b. c #736437",
"n. c #805D35",
"m. c #57561D",
"M. c #4B592C",
"N. c #6D6C35",
"B. c #6C7311",
"V. c #7D754E",
"C. c #7B7859",
"Z. c #756847",
"A. c #917156",
"S. c #82694D",
"D. c #9C7055",
"F. c #93705C",
"G. c #9E845F",
"H. c #404311",
"J. c #847739",
"K. c #635C23",
"L. c #666C2F",
"P. c #786137",
"I. c #4A4A1D",
"U. c #535B09",
"Y. c #6E6835",
"T. c #524C3F",
"R. c #6D4D30",
"E. c #725D2F",
"W. c #6F6C4B",
"Q. c #756251",
"!. c #737B34",
"~. c #675430",
"^. c #7B6444",
"/. c #916143",
"(. c #656440",
"). c #4B6B12",
"_. c #5E6C30",
"`. c #5D5C3C",
"'. c #454E34",
"]. c #7B792E",
"[. c #6D5533",
"{. c #6B5D30",
"}. c #657529",
"|. c #857557",
" X c #806350",
".X c #34391C",
"XX c #A28669",
"oX c #B2906B",
"OX c #896F5D",
"+X c #454C0C",
"@X c #3A411C",
"#X c #5F6A15",
"$X c #6C634E",
"%X c #AB8060",
"&X c #7B7E34",
"*X c #3C2E1A",
"=X c #92684F",
"-X c #9F7C5F",
";X c #8A604A",
":X c #774E2E",
">X c #567012",
",X c #455B13",
"<X c #836741",
"1X c #6B6E08",
"2X c #6E5D46",
"3X c #887F55",
"4X c #637132",
"5X c #967351",
"6X c #8C5B3F",
"7X c #A27859",
"8X c #2E2E1D",
"9X c #AF8770",
"0X c #BD987F",
"qX c #99613B",
"wX c #75722E",
"eX c #675F44",
"rX c #58643B",
"tX c #687919",
"yX c #62791E",
"uX c #A36748",
"iX c #6C7A31",
"pX c #5A3B1E",
"aX c #996B4A",
"sX c #51612E",
"dX c #9E7C6A",
"fX c #627121",
"gX c #92836A",
"hX c #AA947B",
"jX c #76730C",
"kX c #905A32",
"lX c #516B1C",
"zX c #354511",
"xX c #79513A",
"cX c #A7744F",
"vX c #888162",
"bX c #8D8049",
"nX c #655E4D",
"mX c #875A3E",
"MX c #66733D",
"NX c #868941",
"BX c #7D563F",
"VX c #4B543A",
"CX c #6E7440",
"ZX c #C59D86",
"AX c #818A22",
"SX c #998055",
"DX c #836D3F",
"FX c #B1967D",
"GX c #85784C",
"HX c #333B29",
"JX c #778423",
"KX c #3B4B18",
"LX c #7C8B15",
"PX c #201A0F",
"IX c #8B8E60",
"UX c #967866",
/* pixels */
"q.l.C j l.O.  e.# b.k H h.X.+ m.7 M.0 (.,.sXMXM.sX%.C.!.g r U.m wXZ z I.I.m.=.4 m.=.x.j y ( e 4 m.7 3 y.; J &   *   M &Xq.+.o.q.",
"l.m +.! # r $ * e I b.P.5 q e 7 Q 1 y.NXtXlXM.| ~ 0 0 3 s U U.fXJX..9.9 U.U.v.+XU.U.l.m g p #Xf.f.,.R R l 6 5 & y N.s s.].o.{.l.",
"{.C # z x = $ 8   # z c Q.& 4 z = e.y.>.).).,X,Xh ~ HX@X: v.v.g yX} U.9 } H.H.+X+X+X+.+ + j =.>X).lXr 3 X.i.x.I Y.s.s.bX$.b.k {.",
"^.7.GXH <.E J a.L 7._ 4.FXgXj.Z.> e.S ,X>X>XB.#Xf.#X~ .X% 9 z.#X8.9.9 +XH.H.+X+Xv.v.} v.+Xv.8.>Xb sX4X>.>.I g N.gXhX6.G.^.<.[.[.",
"cX=XK c { L Q.N F.F.k.A.OXF.5X' l G 8 I yXw.fXMX!.5.CXsXtXLXLX5.B.B.jX9.+.q.1X9.1XjXjX1X1X8.1Xe.- %.vXvX3XC.MX1.XX0X0X9XD.mX/.aX",
"uXuX/.;.i.4.Q. XN F.k.k.N ;Xt.E.8 * < . M fX0 rX4XtX}.iXLXLXAX5.8., z.9.P.l.1X, 1X1XjX1X8.8.U.'.- %.W.u.$X$X#.0 XXZXZX9XD.uXuXcX",
"cXuX6X<.[ ` Y ` N k.D.D.A.A ^.~.6 n T.C.fXg VX'.sXw.w.}.B.5.m ..f.9 +.9 E.cXq.l.J.jXjX9 U.U.w rX%.CX4X1.#.#.u KX[ 9X9XF.aXuXuXuX",
"mXmX;.E *XPXPX8XJ K K f X &.g.6 J < $X#.'.u o o o M.g @ U O.o.@ r U + m.E.-.q.-.oXl.U =.H.+Xf.lXw.lX).yXe.Q zX@X$ ` @.5 xX:.:.:.",
"*XW 3.E E < J q I.6 c H i.u.`.* a u u.S @X.X8X8XV +...z =.m.+ O ~ 4 4 K.z.O.O.q.].g > h zX: ).).b | w | ,XzX.X< o 2XY E 3.*X8X*X",
"n.0.-X0.0.^._ ^.' [ D.7X5X4.Z.u.V.(.C.NXAXAXNX#.S AXAX5.1X5.].+ @X} B.z.} v.v., B.5.g f.g p.}.lXb | e.h.  =.I.8 2 & y 6 3.X X X ",
"D BXBXD D K B X L ' aXk.0.d.Z.eX#.VX- 4X5.M NXV.nX%.( ..B.5.p.r., , 9.} H.H.7 U.9 8.#Xq.s.}.M }.w Q ; 4.q % 8 t 5 I.> * 6 D xXD ",
";.P P ^ K B B X <X{.t.7XD.A.L . u '.S @ g N.!.3XgX#.W.p.fXp !.].K.} 9 v.H.H.# , 8., : q.J.M &Xi % % M.Y q O 8 @.B $ 3 = J <.R.R.",
"^ <.K c.:X:.R.c.P.h.<.D g._ _ c < 8X< o 2 l j . hXC.d.i.j y I + = I.} +XH.H.# U U.U 4Xp.# Z J.p ! ,.@ X.T T q Z.7.l # z l a 3.;.",
"4 {.q { 0.H E.r.T [ h.3.<.S.|.{ @.6 l Y $ $ S W.C.vX$X$XT.6 C U 7 m.9 } H.} 8.8.#X..tXB.z.DX-.Z s s y.$.5Xj.A.] ] Y l q l a J E ",
"E.c.^ n.t.k k n.f [ A =X' 6.G.SXL -X6.vXCX1.%.W.u.CX!.IX%.% JXM f.#XB.9.v.8.9 8.B.jX#X8.z.J.r.F N.F (.L.r.7.A.N / 2 *.B c <.<.E ",
";.W ^ c.<Xk ^ :XD K f mXn.G.hXL L gXgX%.rX0 (.1.d iXyX}.R n s.Y.r U B.z.} 8.9 9.z.jX9.v.} m p Y.{.m G i a.N F. X2 / _ X f d.A a ",
"W pX^ k k R.^ R.R.^ k n.n.cXG.T a.$XV.W.VX- W.1.d &X}.4X1 2 t Y H + O.z.} 9 9 , C l.9 v.} o.+ + N.,.R . 2X@.v 2X]  X_ X 2.X S._ ",
"t.R.^ ^ ;.W W 3.^ ;.^ ^ c.t.] g.u o a * .XO `.0 d s.o.  Z.u.Q.@.5 a # z.} } } m.$ 4 } } 9 r 3 3 ,.U r . ] t Y ` 4.` K c &.K K S.",
"G.-X5XA A 2._ g.[ d.] 7.L G.hX|.+ @XzXf.g > O ,.f.5.AXAXNXIX6.%.= 7 z.9.9.9 9 +., ..m B., ! ! 7 : :   (.eX5 / v OXN A 0.0.) t.G.",
"aXaXaX/.aXaX7XA.N ] N A.N =XA.[ H l g NX&X+   &X}.!.M JX&XbXIXd $ z z.9.9.9 9 , l.l.m , } U U 3 w w ! . |./ Y ` 4._ mX/.qXqXqXaX",
"qXqX/.6X6X/.5Xt./.X /./.=X=X;X;XD ~.E.r.p l >.JX>.Z.d M ].NX3X&Xi x , , 9.9 } I.7 #X,.=.: ! ! 7 : : =.j t 5 v 2Xv v xX:.kXqXqXqX",
"kX6X:X:.6X/./.) mXX ;X=XD.D.=X=X) c [.E.4 6 O iXM.G V.p.wXp a >   V 7 e.7 H..X6 3 g 3 : , # + U w w 7 > t @.v v ` ` X :.kXkXkXkX",
"pXW W W W W *XW 3.P *.K B *.B B ;.W E E *X.X8X< < J c x 4 a 3.u O O * n J 2 O i O $ @XQ =.z x K.K.m.7   t @.Y q / v / pXpXpXpXpX",
"c { 7.{ ^.[ 4.[ a.*.5 5 J *X< J E J * * l ; i d { 7.L 4.2X^.Z.(.L.fX!.vX|.nX!.}.s Z + e.g g z 4 m.: w ( ; J a   & 5 *.*.P W W W ",
"d.oXj.G.j.oXZXoXXXj.6.6.hX] { S.S.[ a.gXgX|.|.G.oX0XFXvX|.%XL . 1 ~ w s V.1.s tX..m L.0 0 >.g m.=.: w 3 = o n a h.K @.g.K B B B ",
"/ d. X] v { L [ 7.hX6.6.6.L 0.7.7.x z V.|.q t Y ] hXFXC.. SXL Z.`.> ,Xb G i ! r # # @ VX>.fXU = Q =.r z 4 o o 5 &.&.&.B *.*.P W ",
" X/ &.4.v Y a.@.@.Q.7.6.j.{ S.S.~.6 6 X.S.J a [ h.V.|.q q c H Z.G ~ ,X~ q ; @ ~ e e O 1 M.| > : ,Xw 7 = $ < o 5 5 P K f 2.2. Xk.",
"0XdX{ j.5XL SXSXSX6.hXXXj.FX6.Y E E Z.G.y * * m p r.3XC.; ; F d . . >.1 i     $ i `.8 1 u 1 e.>Xb | = $ J J < 5 &._ d.-XoXoXoX0X",
"6.FXdXF.S.OX] 7.G.oX9X9X-XXXXX[ x x T bXs.& e LX5.I . h.h.3Xj.$.y L.( 1 3 h Q 2 S `.1 - - %.w.b ~ @ j y L T S.A.k.k.-XG.oX%X7X-X",
"F.-XN  X` ` X v *.k mX) P.~.~.<.x x g O.{.6 e q.5.5.b.) ) 5X7X-.q.O.( O   $ V $ u 1 0 #.- _.tX>Xb | + y j.$.GXj.$.j.G.bXL 2.F.F.",
"dXF.OXQ.Q.` X _ t K f g.[.J 8XPXE I.U U z 4 3 tXyXM Z k ) ) D.-.5.g i S 2 2 > 7 > O u - _.w.w.>X>Xw.R R L F I { { -XXXJ.$.X UX9X",
"] Q.4.4.7.7.[.3.6 <.*.B P E P *.@.6 4 4 x m., ..>.b.y l f X X P.+.> S 1 o < Q % = $ O 0 '.~ f.>X).).r 3 X.' ; 2XOX|.SXbX$.[ OXOX",
"K 5 g.c f f ^.[.H 6 E 5 / OXXX6.dX^.<X' $.].tX#XC r.$.L Z.t 6 +.z.,.| h > O 8 (.d G i @ 0 #.e.>Xe.sXMX_._.L.! G gXhX6.XXA.k.N  X",
"N B ;XP *.`  X_ f K B v N 7XBX;.D k n.t.<Xi.s tXM r.T T <XZ.y..., R % Q % O T.V.V.u.1.0 - - M.M.- %.vXgX3XC.MX1.XX0X0X9X%X%XD.=X",
"UX&.;X*.5 &.X X X X `  X-XoX2.P D k ) =X0.^.Z !.Z T T T T ^.i w w 3 V o n u Y u.. d y.i 0 1 '.'.- %.%.W.$XnX#.; XXZXZX9Xk.%X7XF.",
"dX` ;XOXv BX6XA A f X 7X7XD.mX;.R.k ) t.5X^.y CX[ 0.T d F q = : : =.V n * 2 u $X$X. . ; * 0 0 rX%.y.4XMX#.#.8 KX' XXdXF.N -X7XdX",
"P P &.OXOXk.5Xt.0.g.P.%XcX<XA.0.E.^.b.bXSXT  .&X].bXbX .a   C +., h % *   z @ u.#.t t ; d ( >.lXw.b ).yXe.@XzX@X$ 2X/ P 5 P P P ",
"W K F.9XdXk.=X2.) 2.t.uXkX:.A t.n.) P.' <Xr.M JX].DX' ' 8 + O., , ,Xh $ $ * S 1.1.. Z.F wXp ,.).b | w | ,XzX@X< o eXY E &.K W *X",
"R.;X;X6XmX:.:.:.:.D :.kX:X:Xc.n.P.D c.k k P.p.M  .H H ' l & # , : h % 8 2 T.T.; L.G a.r.C I s w.b | sXa.j =.I.8 2   x.6 g.2.X R.",
"BX;XxXxXBXxXxXxX:X;.:.qX:.:X:Xk P.[.k D H E.N.iX .' i._ X a.u 7 w KX% o n n n O @ G Q.DXC g M }.w Q ; 4.q % 8 t 5 I.> * <.|.4.k ",
"K D 3.P W *.;.;.k ^ :X/.6X;.;.3.<.3.<.c [.x I iXZ ' a.b.x a `.; > % 8 o 2 2 < < i |.. Y.! s &Xi % % M.q q & 8 @.@.6 3 = J t 3.*.",
"P.<XOX/ 5 &.X S.A D B N 2.X 2.D D H i.) t.J.].p F  .s.M y.eXd GX].p Y.. s.Z 1 > ! ( y s ! s.J.s >.w.i  .$.$.h.4.7.q + j l 6 E *.",
"2.%X%Xf v f f g.&.f A N 2.2.0.0.A S._ n.n.E.o.Y.0.h.p M . nXd r.l.+.e x.+ g   > g j & @ p -.-. .s s y.$.-.j.A.] ] @.t q c a J P ",
"BXcXcXR.@.d.f f g.&.f X X X 2.A A 0.a.c.c.K.I ( H t X.Z F d./ x.o.# # j 4 + t   @ j & e m r.r. .N.F (.L.r.7.A.N / 2 *.B c c c B ",
"xX/./.^ @.] 4.d.f g.D <XA X A 0.2.[ ' R.c.~.+ j y <.i.F F a.< V z 4   & 4 j a 4 $ * & j C + x x.y C G `.h.S.N ` < 5 g.f g._ A c ",
"t & K.a ; i l a a c c <.[.k n.<X' {.~.c E.o.C iX .' H H ~.a q * % .X< Q =   > 4 e 3 ; q X.+ e z N.,.R . $X@.a z e Y.T Z.`.l i.. ",
"h.y.( ; e h Q n 1 G & `.<.R.:Xk P.[.D X b.C O.m F  .s.M R * b.. eX`.>.* ; @ @ = i @ V 1 u 1 ,.f.f.r e . 4.t # JXNXIXG.GXG V.3X$.",
"p m R O 3 % V 8 u 1 S - 0 6 3.3.a a <.^ [.x K.o.0.a.s M X.V.3XT X.y.( ; e h Q 2 0 G O 0 - - sXlX0 %.C.C.u.y.}.!.6.0XFXdX2.k.%X-.",
"5...R S 2 2 O 7 O 1 1 - - 1 '.VX- u.' ) t.J.wX( i./ Y.Z F k.%X-.p m R O 3 % V 8 u 1 S - - 0 '.'.- %.C.vXC.C.%.G XXZXZX9X) ) D.-.",
"#X  S S o < % =.~ $ u - #.- rX_.4X_.h.n.n.E.+ z x 4 h.b.b.) D.-.5.fXR S 2 2 O 7 O 1 1 - - VXVXVX- u.(.%.nXnXT.= j.0X0Xk.f 2.A t.",
", 3 M.h = $ V ; G @ @ @ I p w.).lXb z c.c.K.# ..O.O.# ( Z P.A t...  S S o < % =.> $ u - #.- rX_.4X_.w.iX`.u Q zXl N N { d.t 6 K.",
"+.L.% Q % O u V.3XW.1.rXL.p ,.b b | 3 ^ c.~.O.}.p Z M &Xq.+.6 K.+.3 M.h = $ V ; G @ @ @ I p w.).lXb b ).,XzX.X@XV v _ S.[ 2X( B.",
"w 3 V o n u Y u.. d 1.0 @ g M fXb h @ c b.o.m p L.p.p.Z p o.+ ..+.L.% Q % O u V.3XW.1.rXL.p ,.b b | e.@ | h Q < n q [ T T ^.( f.",
": 7 V o 8 2 T.$X. d y.i $ g !._.> Q 1 d.b.C O.p Y.Z o.~.k a.x.f.w 3 V o n u Y u.. d 1.0 @ g M fXb h @ d.l ~ $ * 2 = j d T a.O : ",
"9 h % *       W.#.t t ; X.!.&XR = ~ M.h.H x.o.+ & l x m.x y   7 : 7 V o 8 2 T.$X. d y.i $ g !._.> Q 1 d.q % 8 / t I.> N.l   U #X",
", h h $ = O ; CX(.eX. i.J.$.J.p.4X}.1.{ f ~.y N. .Z O.C O.].m , , h % *       W.#.t t & X.!.&XR = ~ M.; h.X.6 Y d.a # X.8 # O.9.",
": h % 8 8 T.T.; L.G _ r.l.-.-. .s Z 1.N.~.c l +  .Z m wX].J.q.9., h h $ = O ; CX(.eX. i.J.$.J.p.4X}.1.GX5X5XS.] UXh.y ' & & C 9 ",
"w KX% n 2 n 2   @ G Q.DXm wXs. .Y.Z eX; H F Y.I P.E.+ o.p wXm 9 : h % 8 8 T.T.; L.G _ r.l.-.-. .s Z 1.s.$.j.A.N v / c d.' Y & r ",
"~ Q V < o o < < @ u.Q.i.C m I + y ,.i o '.i r +.K.x y y {.~.& r w KX% n 2 n 2   @ G Q.DXm wXs. .Y.Z eXR F L F.N 2 2 K H [.& S * ",
"p.I ( (. .Y.* = >.d X.p.r K.e + s g @ o HX| w U : =.! @ 1 *X2 O ~ Q V < o o < < @ u.Q.i.C m I + y ,.R `.q `  X` 2Xd.Z p.( `.d d ",
"q...+ y I C   > ! z l >.r r 3 7 : : $ '.$ 0 1 > : : ! S < PXi V.s.I ( (. .Y.* = >.d X.p.r K.e + s ,.# W.|./ @.d.] q p.M y.$Xd GX",
"C U # j > # &   ! j & e ! # # r w : 4 8 8XHXT.'.~ > N.- 2 o Y $.q...+ y I C   > ,.z l >.r r 3 7 : : 7 x.Y 5 v 2X` 5 N.wX .2Xa.X.",
"x j e l   x.& * $ * & e # j x # r r % .XHX.X8XHXHXV u n o V.y {.m U # j > # &   ! j & e ! # # r w : =.  u / v v v 5 a.F F a E * ",
"p Y.  I.= 4 = 4 4 = ; l X.+ 4 4 m.R %.0 rXiXsX8X.X% O i V f.,   x j # x.  x.t * $ * & # g e + # r w 7 = q v v Y y C z x.X.x.o.wX"
};
