/* XPM */
static char *f15bde6b15314f87dd506d87931d45a3EAFsvIaL56wZpwlJ[] = {
/* columns rows colors chars-per-pixel */
"64 64 181 2 ",
"   c #644543",
".  c #835445",
"X  c #8E5D4F",
"o  c #855341",
"O  c #5F3E3A",
"+  c #563935",
"@  c #694B49",
"#  c #614441",
"$  c #583B38",
"%  c #61403E",
"&  c #684847",
"*  c #5C3D3B",
"=  c #6D483E",
"-  c #945E4C",
";  c #5C3A37",
":  c #6B4D4C",
">  c #64443D",
",  c #89594B",
"<  c #8C5749",
"1  c #865846",
"2  c #6F4F4B",
"3  c #694842",
"4  c #705352",
"5  c #7F5140",
"6  c #805144",
"7  c #58403A",
"8  c #8A5442",
"9  c #8E5546",
"0  c #5D403C",
"q  c #634B4B",
"w  c #543431",
"e  c #5B4240",
"r  c #6B4744",
"t  c #664745",
"y  c #7B4B3D",
"u  c #694239",
"i  c #925947",
"p  c #653F39",
"a  c #754B42",
"s  c #895547",
"d  c #61433B",
"f  c #6E4A41",
"g  c #6F443B",
"h  c #8E5A4B",
"j  c #67504F",
"k  c #434F57",
"l  c #B9B2A3",
"z  c #434C50",
"x  c #5F4D46",
"c  c #7B4F40",
"v  c #844D3C",
"b  c #8C5D4A",
"n  c #6A473B",
"m  c #73493C",
"M  c #8A503F",
"N  c #674240",
"B  c #735043",
"V  c #774637",
"C  c #344149",
"Z  c #855A4D",
"A  c #BFB7AA",
"S  c #3D484F",
"D  c #5C4846",
"F  c #5C4641",
"G  c #533F3B",
"H  c #825848",
"J  c #6F5A56",
"K  c #A89C8F",
"L  c #B5ADA0",
"P  c #925B4C",
"I  c #654B46",
"U  c #926052",
"Y  c #594843",
"T  c #7C4B38",
"R  c #897163",
"E  c #7D6B62",
"W  c #BDAD9E",
"Q  c #623D34",
"!  c #70463F",
"~  c #897D73",
"^  c #A4978A",
"/  c #8C8279",
"(  c #827A6E",
")  c #8C5843",
"_  c #3A444B",
"`  c #794D46",
"'  c #8A5A47",
"]  c #7F5646",
"[  c #958D82",
"{  c #B8ADA4",
"}  c #AEA99C",
"|  c #965F51",
" . c #6A5652",
".. c #875044",
"X. c #75635A",
"o. c #614940",
"O. c #765B55",
"+. c #926758",
"@. c #91877E",
"#. c #876B5D",
"$. c #62524A",
"%. c #AE9E91",
"&. c #694D44",
"*. c #6E5448",
"=. c #8E6250",
"-. c #614747",
";. c #ACA497",
":. c #B3B1A5",
">. c #6A5B53",
",. c #A6A093",
"<. c #6F4A46",
"1. c #B7A89D",
"2. c #55443D",
"3. c #65574E",
"4. c #775549",
"5. c #9D9286",
"6. c #A5917F",
"7. c #B1ADA0",
"8. c #5E3830",
"9. c #AD998C",
"0. c #29353A",
"q. c #B2A89B",
"w. c #7E5C4F",
"e. c #495660",
"r. c #9A6657",
"t. c #2F3C43",
"y. c #8F7D6F",
"u. c #807369",
"i. c #876558",
"p. c #948777",
"a. c #3C4B54",
"s. c #554342",
"d. c #4D3C39",
"f. c #7C6055",
"g. c #6F6259",
"h. c #4A5254",
"j. c #895E51",
"k. c #4E3731",
"l. c #8A7A6C",
"z. c #9C8C80",
"x. c #A09E90",
"c. c #B8B4A7",
"v. c #6E706D",
"b. c #575F60",
"n. c #835F55",
"m. c #4A312E",
"M. c #AB9584",
"N. c #B6B9AB",
"B. c #B2A294",
"V. c #7A5546",
"C. c #99897B",
"Z. c #A8A89C",
"A. c #7B7D77",
"S. c #343C3E",
"D. c #927F77",
"F. c #C0B1A3",
"G. c #867667",
"H. c #674F4A",
"J. c #89897E",
"K. c #8A8173",
"L. c #959689",
"P. c #3C4345",
"I. c #7F524D",
"U. c #77675E",
"Y. c #927567",
"T. c #545A58",
"R. c #9E998B",
"E. c #636864",
"W. c #7C7166",
"Q. c #998070",
"!. c #A18577",
"~. c #3B2E2B",
"^. c #6F4131",
"/. c #82817A",
"(. c #A9ADA1",
"). c #CDC2B6",
"_. c #BFC0B4",
"`. c #BAA595",
"'. c #725B4F",
"]. c #7A7973",
"[. c #9A796C",
/* pixels */
"K K K ,.;.L l c.:.:.:.7.Z.:.:.A ;.[ } ;.;.} ;.l L L q.7.l :.c.:.N.N.:.7.q.B.;.7.l q.7.c.7.} c.A l A L } L L L l c.c.:.Z.,.x.x.x.",
"$.$.3.X.U.3.3.>.>.$.$.$.g.( ~ E X.X.E G.l.U.U.E E E U.X.X.E X.E / 7.( 3.X.O.g.3.>.J X.J U.g.>.U.E u.U.>.3.>.3.g.g.g.3.x g.J 3.$.",
"G x G $.3.G G F   $ 0 * I   $ # d O   d &.&.O d ; O >   $ * 0 w x ;.u.D : @ -. .-.j j e  .J x x j j F F F H.H.e e e F 2. .E H.G ",
"d.s.s.j j q : : % &   r t ; O N > 2 w.2 3 > 3 N N u r <.r     % x ;.[ q : 2 : j -.4 j J J q D q 4 4 -.@ 4 e -.-.4 * e D q q e G ",
"D G D -.q & : % 0 O.@ & # & 0   > 3 2 3 2 d 2 d > 3 O O 3 & & # $.{ ].d.q @  .D j j J J  .j Y q j j j q s. .q D j j e q s.d.s.D ",
"d.s.j # : @ &   : 2 t   I # @ @ &.*.&.&.&.> d *.2 d 3 t 0 # 2 H.x :.].x  .4 D D D D  .J  . .Y 3.J j >.D q $.>.j D H.s.Y d.s.G d.",
"F G e # I I $ + * $ &   4 & % 0 O > d 3 > > d > r 3 3   & $   0 >.{ ( q 4 4 O. .q q H.q D j  .3.J  .x q F F q  .@ : @ -.H.D G D ",
"e F 7 j + + I # t r N r 2 N   <.2 4.r 3 <.<.> p N f r 3 % N   @ J 1.@.F t & : H.e : 4 4 -.D -.-.4 : @   -.@ @ # & 2 & t t 7 e e ",
"D j @ & O ; # 2 3 3 &.&.O t @ @ <.2 2 O.3 &.2 > 3 2 2 3 d '.2 # J { ~ Y j q j -.q 4 -.e J -.q e q j O.: : @ 4 @ # 2 H.I 7 F j D ",
"2.Y x 7 0 I 7 e F + x 7 7 2.F F o.d + o.o.o.I 0 + $ 0 0 % + $ $ Y { @.d.s.Y s.G 2.d.Y G Y D x Y F 2.G Y 2.G  .J I k.F x 2.G Y s.",
"@.@.@.~ ~ D.l.u.~ u.W.X.g.g.W.u.( W.K.C.z.p.D.y.[ / @.[ @./ / ~ / l ,.( ~ K.z.z.5.^ ^ K p.p.5.z.C.z.@.K.( W.( p.D.C.z.D.~ ~ @.@.",
"u./ W.E E X.U.E E U.l.K q.L A A c.A A `.W `.`.`.K K ;.^ R.5.5.K.G.C.p.C.C.Q.y.y.y.l.R y.y.#.E #.#.R X.[ x.~ X.E E X.U.E E u.D.u.",
"G 7 e k.+ $ o.I F o.I '.X.X.g.@.7.{ C.f.w.V.4.4.a c c c c g c m n w.w.4.n = n = n n n f = f n n u d '.^ / x F $ # w + $ + 0 * * ",
"4 * 0 k.# 0 t : #   ; O * 7 m.~.J.L !.m . 6 m ` V v T V o V s 5 6 y H ^.^.c y . . 6 ^.. c c 1 y V m f.K / Y # % % m.* # w O O 2 ",
"& : e 4 X.      %   w w w + G ~./.} Y.] o y , 6 c c H ] Z m c c , . y y 1 6 c 6 6 y V c V . 5 6 s m &.^ / 2.G $ + e 4 f.4 0 &.3 ",
"# 4 H.E U.e o.$ + 0   ; O 7 d.~.L.} R g T V V c m 6 6 , Z 6 c c s , X , V ^.V y V y 5 Z c 1 H . 6 V.&.x.L.d.D e k.2.q X.E H.4 # ",
"0 I I I F k.&.w 7 o.; + w G d.~.L.,.M.V.T T V H m V y , . 6 c 6 . c y 6 y V y 6 ] H ] ] H m m m o V.*.,.L.s.s.q 7 G e e H.I -.e ",
"@   4 e 7 7 t d d + $ * + 7 s.~.J.,.6.+.5 T ' . . T V y 6 y y 5 5 y ^.c m 5 c . , . 5 5 5 5 V ^.- 1 w.%.5.2.H.  # 2 & * % 4   @ ",
"& q 4 j j 7 $ d $ 0 * * % e G ~./ ^ Q.m , ..v V ^.T T T o o o ' 1 T T X 1 6 5 5 s r.o ' s s X < i T w.%.K F 2 N % t @ : 2 4 & & ",
"w m.e j Y m.7 o.k.w * * w 7 m.~.p.K !.V.Z 6 . . y 5 1 5 6 . y V 5 s s h s 5 y 6 j.H ] Z V.j.] H 5 V.f.q.^ k.F -.+ 7 $ 7 H.7 m.k.",
"'.*.>.>.>.$.x $.x $.x H.o.2.Y $.K.5.l.n V.m Q B B B B B = n B n *.*.B #.n.n.f.'.f.'.O.'.'.O.'.f.O.'.u.} Z.g.>.>.3.>.g.>.g.>.>.g.",
"%.B.q.Z.Z.,.,.;.x.} } ,.7.x.,.,.x.R.R.[ z.C.C.p.z.5.D.^ ^ ^ K ^ x.R.,.K %.B.K %.6.9.%.%.B.6.9.9.%.%.%.q.,.A 1.%.1.%.^ %.^ B.B.^ ",
",.,.J.T.T.T.h.b.T.z h.b.E.E.b.h.T.b.v.T.T.b.b.T.b.h.b.E.E.b.v./.N.} u.G.R Y.f.f.#.R i.n.n.R #.i.n.n.i.i.w.n.#.i.n.n.n.w.w.n.w.w.",
"x.(.E.0.C t._ _ C C 0.t.0.0.S C C t.C 0.k C C t.0.0.S.0.0.0.0.S.1.9.4.y 6 ..< o . 1 c , . 5 1 c X X . 1 , U . . , X X , +., , X ",
"Z.N.v.P._ C _ _ C a.C a.C 0._ a.C C a.C a.t.S a._ t.0.t._ C 0.z (.9.I.< P o X X h o ..h X h ... U r.X U U r.X , =.b , =.=.5 . 1 ",
"(.N.E._ k 0.0.S _ C z k z t.S _ t.z z t.k k S _ z t.S _ _ z S S Z.K 4.s o 1 H 1 . , , , , . b . . +.+.X X X , , P ..h | h < P ..",
"Z._.v.S a.S S k h._ h.z T.z S.z z h.S z z h.h._ z C z h.S S.S.z (.K 4.=.' ' ' =.b ' 1 1 b b o b , =.X X +.+., X < < h ..r.U P r.",
"Z._.v._ e.e.k k S z e.z z S _ C k k e.e.a.t.k k S _ C k S C t._ x.^ i.' - 8 - 9 o 8 h - - P v v T y o b o ' U 1 H H H j.Z j.Z ] ",
"(._.E.0.k a.k S S S k a.k C a.a.e.e.e.e.a.a.a.a.a.S S t.S k C b.Z.9.j.h i M i - i i v M 9 9 | i ..< s v < | | P =.1 5 b b 1 1 1 ",
":.N.E.S._ h.S z k e.k _ e.e.e.e.b.b.b.e.k k k a.C C k k k z S e.(.B.n.. ' h h | P r.P | | ......< U h ..X U < X 8 M | P 8 v i P ",
"R.:.A.P.S k z P.P.h.S.S.z P.z T.z z h.z P.P.h.S P.P.S.S.P.P.S.E.:.;.f.] c H j.H H Z U =.c 6 Z H =.] Z j.j.H Z 6 c 6 j.Z 6 y 6 Z ",
"p.x.[ ].A.v.v.v.v.v.].v.v.A./.A.A.J./.A./././.A.A.A.A.A.A.].v.J.(.Z.G.#.Q.Y.#.#.i.i.i.4.#.#.#.#.R R R R i.#.#.#.E E R G.l.y.y.y.",
"^ K ^ K K K %.K K q.{ { q.{ { { 1.:.Z.N.{ { l :.} } } } :.} 7.:.} } ;.{ ;.q.{ q.L l } ;.q.7.L { { A N.(.l F.B.%.9.%.9.9.%.9.9.^ ",
"&.o.o.*.*.o.*.&.*.*.&.F I o.7 I k.~ c.L.G @ $.$.Y G Y 2.$.Y 2.3.J  .X.J >. .3.x $.g. . .3.3. .$.j 2.L._.K '.*.*.&.*.> *.*.&.> &.",
"f f = = = p Q = f f Q w p O 8.N + D.A 5.+ r ; k.+ * 0 * + w $ * + ; O m.%   w m.$ + w w + + $ + * m.~ A 9.d <.f n p p = = ! ! f ",
"! ` ! ! a ! g u u ! ! Q u 8.p Q $ C.A [ + <.N * ; N % ; w w % r ; 3 N r % % w ; ; * %   % w w r & k./ A 1.3 n u u g ! a ! ! a ! ",
"! a ! = g ! a u n n u u Q ; N O + ~ _.J.G O ; $ * w O O w 0   % * %     * % + * $ * 0 $ %   $ * $ ~./.c.K o.n n u a ! g g ! a g ",
"= B f f f f B n f f f > > Q ; O + K.N.x.F     0 # $ $ # + + 0 # * w 0 $   0 $ + # I e 0 7 # # $ # d.J.N.R.d f ! = B = f f = B = ",
"V.! V.B g u = ` = B = 8.p u p p % u.N.[ G ; ; * * * + O t % % % 0 $ + w $ * t 2 4 # $ 0 m.+ I * * d.J.N.K > ` ! B = u n B 4.= 4.",
"` g I.m 8.g m a u B Q 8.u a = u p D.)./ + N p ; % ; + w O <.% r O O O O % O + O &   + * w % 0 $ $ m.K.c.%.> ` g a m g 8.m ] g a ",
"m ] a B a = = m n B u u Q Q Q n 0 D.).l.k.# O O % > % O N N 3 N t % &   # @ d ; 0 0 0 0   # % $ + m.u.{ %.&.a g a g m a ` ` I.m ",
"8.4.= u <.r p p p p O r 3 <.2 * 2.~ A @.d.x x I x F F D F 2.2.x 7 F x D x $. . .J x j x 7 7 D e 2.Y / { ;.F 7 d d d 3 &.d o.*.+ ",
"( ( ~ ~ ( ( u.u.u.( ( 5.;./ [ / J.J.Z.L.L.R.[ 5.[ @.@./ / @.~ / p.D.~ / / [ 5.z.z.[ / K.~ ~ ( ~ @.@.@.7.R.( G.E W.W.( u.( ( u.( ",
"(.Z.c.L q.W l l l A l } l l L c.A { L F.F.1.W W 1.1.1.W 1.1.W B.`.W L 7.Z.[ 5.5.5.5.B.q.q.1.W F.F.1.L L ;.l A A l { { L _.c.A :.",
"^ W M.H . 1 H j.Z =.+.Z j.+.i.j.i.Y.w.i.+.i.i.+.+.j.n.w.] i.Z V.B 4.D.l R.2.G $ 7 7 7 o.0 7 H.*.I I o.e o.X.X.E J H.H.J X.J J >.",
"/ F.[.V - v T - - o - b s o h U b b P P P P | ' ' - 8 o 8 o o o 5 m R ).%.x * % % > ; ; %   <.% O O O O $ * ; + N r ; ; w w w * ",
"].7.Q.H ' ' ' H =.=.=.=.=., +.+.X - P P r.r.< 1 < U o 5 o T y s s c Y.).^ Y & N % O <.% N r O N 2 O N r r p p N r N p r r ; ; > ",
"J.A !.. i 8 ..6 8 | 8 < P ....s 6 X < < ..< , Z , X . 6 5 . 1 b v c Y.F.5.G # N % % & & t % t & 3 3 % O ; N % O > r O 3 > > O w ",
"[ W Q.H | ) o ' 9 M 9 9 8 9 8 9 Z ` s ..s P < , U U s X X , X s M , !.l ^ D % O # 4 : & & @ 4 & N N r 3 ; % p r <.N r N % <.% % ",
"p.1.Y.H h 9 s s 5 . =.' . . b 1 Z ] . 1 1 . c c ' +.b o ' ' =.b i b 6.c./ d.# t I I @ # o.I I 7 # t d 7 $ # d 2 &.d > 0 0 0   # ",
"5.W Q.. ....s v 1 5 5 1 5 1 b 1 b b ) o b o T 1 b ) ) ) o ) ) ) - 5 6.A ~ +   3 = 4.f n 8.Q n f 2 4   0 d 3 w <.B f B 2 3 d d 3 ",
"7.A R B ] , H X v o o o o s < 8 - i i 9 i i ..h 8 9 i 9 M 9 M - i =.!.).z.w r <.` Z I.` I.I.` ` I.n.` I.I.` g a I.I.j.Z I.` a w.",
"[ ;.G.n B n 4.V.] c y y ] H ] 6 5 . 5 ] 6 ] ` m m Z m V.Z c m a a *.l.L K J -.D @ &.> 3 2 O.2 O r r 3 O O > Q Q = f B p f > > 2 ",
"@.^ 9.6.6.M.9.9.M.6.M.M.z.6.C.6.6.Q.p.6.y.z.M.M.z.l.y.G.l.l.p.6.C.K.J.L.L.L.L.R.[ [ [ [ 5.[ @.K.y.y.~ ( K.( u.l.l.K.( G.K.( W.( ",
"R R R #.R R #.Y.G.l.R R G.R G.p.y.p.K W ^ 6.M.M.6.6.M.6.M.9.B.`.`.M.%.l F.B.W F.W W W W F.W W W W W W L l x.7.l 1.L L l L l c.c.",
"O ; O Q 8.8.+ ; 8.= Q p p Q 8.Q n #.9.Q.V.] 6 y V y , . 6 , , , < s ] +.r.r.+.+.j.j.j.+.+.=.=.j.+.Y.w.Q.F.D.>.j @ : 2 I O.O.O.O.",
"#   t % & t 0 & Q p = Q p a = m f G.q.[.' ) ) M 9 v o h < h ' 5 v | U U < h X h h X U r.r.X X U X | U Y.W ,.Y % t $ #   $   % O ",
"$ @ @ #   0 * % p = B f ! = g m = K.l [.T M v 9 ..8 9 o < - - < h h X U U U X s U , U 1 1 X =.+.X h U i.B.} x * # 0 e   # : : $ ",
"$   & & # 0 # @ f ! u ` ` a a a u p.l Y.M ) ) M v i 9 v 8 - 8 ) < s U - h h P h h s X , 1 1 X , X < s n.l ,.D   : # 0 # & &   $ ",
"& t @ # t # # @ <.g g a g g ` m Q p.A !...i i i 9 M 8 - 8 ) ) ) 8 r.h h h P < - < < h U X b 5 b X | s n.L ,.D & @ e     # @ & & ",
": t &     4   # u ! ! ` g g g V g p.A [.v v v | M v M M M - 8 8 8 - 8 h - v v h P r.U o X U 1 b o < X 4.q.7.$.0 # # O.t   & & : ",
": #   @   @   * = ! g a a a ` c u C._.[.s 8 ' 9 8 i 9 i ) i ) M 8 v 9 M 9 i M 8 P | - P h b ' 1 T ..6 w.1.l J   0   @ t @   # : ",
"t @ t : @ % t & 3 n = n ! g a a n ,.).!.< ' ' | i i - r.- ) ) i | 8 v ) ) i ) ) ) 8 ) h 8 o o b 1 < X w.1.7.J @ @ @ 0 @ : t @ & ",
"@ t 4 O.    4 f.<.f 4.u 8.n n 8.= ;.).6.V T ^.v v M M M v - M T M ) i i v - r.- 9 P | h 8 T V V U < y !.F.A x w # H.  # O.4 t @ "
};
