/* XPM */
static char *_27e0aa1977c43e99901c097fd4e4fbfnt3dC1ykTvPE8lSs[] = {
/* columns rows colors chars-per-pixel */
"64 64 24 1 ",
"  c #716865",
". c #807774",
"X c #837A77",
"o c #6D645E",
"O c #7A716D",
"+ c #7E7572",
"@ c #776E6B",
"# c #7C7370",
"$ c #736B67",
"% c #6F6762",
"& c #BAAB9B",
"* c #B4A696",
"= c #8D827A",
"- c #7F756D",
"; c #A7998B",
": c #786E66",
"> c #A09387",
", c #B2A18E",
"< c #AA9E93",
"1 c #C7B9A8",
"2 c #857B71",
"3 c #C0B1A2",
"4 c #978A7F",
"5 c #685E56",
/* pixels */
",,*,*,,,*,,*,,*,,;,,,;;;;,>;;,,;;;,,*,,,,,&,,&&*&&3&&&3&33&333&&",
"*,&3333&&3*****&******,,,,,,,,,>,,>,,,,,*3****,,<;,&3*<;&&<***<<",
">;;2-24==222--2-2=-22==-24>=;<;;4*&>==2=>==.=4X=XXXX==XX===.XX..",
",;;22#OOO@+###.#.X+.===XXXXX4<>**>4=X2.+#XXXX+X.X=X++XXX=XX.X.##",
",,;-X.+#+#++.++X.#.##.++#+#.XX+.X+#+XXX.+X=..#XXXX.XXX==XX..X.OO",
",,>-+.+O+#+.X#+X.+.##.+++OO+X.++XXXXXXX.-22-2--2X=X.2X=X22.22-OO",
",,;--+-O+-+..-.X+#.++.+++O#+X...X...XX.+.22..-2.XXX.XX=XXX...+##",
",*;------O--..-2+-+#.-..X...X+...+-....+..++.XXX=X.XXXXXXXXX.+##",
",*;-O+#+##...X+#XX###.+...+#+.++..+.X..++.X.X.+XXXXX=XXXXXXX+++X",
",*<-.##.+##+.X+X.+X+X.+..OO++...+.+X...+XXX=X.XXXXXX..XXXX..++.X",
",&;O###++###XX+X#+X.#++.+.XX#++.+..X+...XXXX..+XX..XXXXXX.+.X+.X",
";&<2@ ..++.##..+#.X.+......X+..X+.+...#+...++...+XX+X=XXXX..+OO#",
";*&=OO++#+.#+X.+++O#..+...##.++++++XXX+#+#.+...+XX++.XX.+XXX+OOO",
";&32@++#O#++..+.#.+++...++##+++.++++.X...+.+.+#.X#O..X.XX.++#O#O",
">&<-O#+#.+++#.X##+...X...##++OOXX#+X...+O#...##X.X..XX.XX+#+#OOX",
">&&-O#++##+.++.####+..+XX+O#######..##+O##...++X#.+.XX++.+##XO++",
">**2-+.#+#O#+###+.#+..#.+##+#####OOO+#++##.+++.+++#+.+++.#++##+@",
">,<2-O#+++OO#OO#+++#..#####+###++O+.+####+#.+##+++X#+####.####+@",
"4<*2O.+OO##++..+...+++O##OOO@#+#+#++###O#O..####+XX++++..+#+OOO@",
"><&=O..#X++.XX...X...X.XXX.+.++.##+O#+.++++#++++#+XX+++...#OOO$@",
"4><222-=X+X=...#-=2X2==22X+2.++.OO-O----#X+.-O.+X.+-=>X2O =XO:O:",
"4;;2--:2::--:---2---::-::::%:::-::-222===444==444=2=4>4>o2;42==4",
"<,;;;>;>>>;;;;;;;,;;;>>>4>>4>>;,<***&&**3&**&&&&&&*&***34,*&&**&",
"&33&&&3&&33333&3&33&&3&1133333133&3311331331113313311111,313&&11",
"&&&&3&*>;;;&*>;>;><<;;<3&<><<*<*133<;<<>>4=4==2-O==>*===.4;<>>;;",
"2+2.=22 ::O=.@: $O:@: :OO@o%$$  -O>;=4>+@$o%%555o@@ @@ $$@$O@O$@",
":O@@@$@@$$$  #O#O@O@@$@@O@@@ $+$ 543*&>X@$$:%555@O#O@OO@@###OO+O",
"O+#.XX+O..X++@##OOO-OOO@@O@@#++$$%2&*&;#@$$@%55o@$@#+X++O.X=X+#@",
"OO+.X.+##@.O#OO#@##@@O#O@O@  #.@$$:3&*> @O @$5o$@@O#O@@OO@O###OO",
"O#OO@@OO#OO+@OO#@OO@@$@#O$$$@$@@@ 4&*&<o :$@@%O@@OO@##O@OOO@OO##",
"##+@@OOO@OO#OO@@O@@OO$ @O@@@@@ $$o<3**>O oO#@@@@@@@OOOOOOO+#O++O",
"O+-O#-OO+OO@OO@@@$$@#@ @O:@@OO$$%@*&*&>$ $$@$$ @@OOOO@O#O@######",
"O#O#-#OOO@@OO@O@$$@$@$$@O#@@@$ @%=3,*&;% $$@@$@@$OO@@@@OO@O#####",
"###O##OOOO@@@@O@@@@@@$$$@O@@$$$$$@*&*&<%$$$$O@@O@@O@@@O#OO#OO#+#",
"O#OO##OO###OO@O@OOOO$$@$$@@$$$$ $%;&**< $$@@@+#@@O$@O@@@OO#OO##O",
"O#OO#O@O###@@@O@@OO@OO@$@O$$$$$  o>&*&*: $@O@O@@@OO@OO@O@:O#OOO#",
"OOOO#O$O##OO@O@OO@ @@@@O@@$@ $$ $o>**&<:$ $$@ $OO$@@O#5@#OOO@OOO",
"+O@O@@#OO#O@$@@@O$ $$$@#@O@$     o>&*&<  $@$$$ @@@@$ @O@@OO@@OOO",
"@OO@@$@@$@@ $@@$@%@ $O@ @@$@   %$@*,*3*:$@O@ $ @$@@$$$$@@:$@@OO@",
"O@@@:@$@$$$ @$$$@$  @$$$$$$@    %O>*&&*X$ $$ $@$$$$O$@O$$:$$@::#",
"O::@@@$ :O:$O@$$$@ $$ $$  O@$$$ @%2**&<=+O@@@@@$@@@O$@O@$:O@::::",
"O$O#O##OO@OO##O@OOOO-+22:-$%oo%% %:;<;>2=X-O:-:O@++.O#OO.X#O+@$#",
"O$$O:@O-@:@$@O@ ::O$o%::%-::- -:+O:==2:55555o%5ooooooo% % %oooo ",
"22=====444=4>>>>>4444444>>>>,<;<*<,,;>>;4444444=44=44===2=4==444",
",;,;,,,****,*&*&&&3&&3&&3&&,,&&33&&&&&&&&*&**&*,,*,*,***,,,,,,*,",
"3331131311111311313111111111111111111111111111111113111111111113",
"<;;;;;><<<;<<>;<3&&**<<<;<<;<>;;<<<<<;>>;>>><<<<<<&33<<<<*<<*&&3",
"%oo5o%$$% $ O %$><>5%o5$% % O%%$  % oooooo%o %oo%%@X.@ o$Oo%$%  ",
"oo$$$ O@%o%%o%%o;&4o%%o oooo5%%oo%ooo $ o@4#O $%$#Oo5   %$ % %% ",
"o%% $   o $$$%o%<&>oo% oooo55%ooo%o%o%%$ $==#  %X=XX>X@ %%o  $  ",
"$ %%% $ %$%%%o %<&<oooo%oo%55%%%  $$%%% $ %$ $$  $ #==X%$ %$$@$$",
" % $$%$  : $$o  ;&<o%%oo%oo%o%$%%%$% %   %$$%$ @@$$%o@$$@$ $ $  ",
"% $$@$% %% $%:% <&<o%%%o%oo   %  $ % $$   $ $$ %  $$$$$$ $$$$ $%",
"  $% $$ %%%%%%%%<*<o%%%% %%%% %%   %%   % $$@$$$  $ $ $$ $ $$$$$",
"$ $  % $%  ooo%$;*<o% $%%$$%o%%%  $$ $$$ %$@$$@@$$$   $$  % @$$ ",
"$%      oo%%% %%;*;oooo%%%%%o%%%% $$     %$@$$$$ $$%%$    %%  $ ",
"$   $   o% %%%%%<&;%oo%oo% %%%%%%$ % %%%$  % $%%$%  %%% %    $%%",
" %% $    %o%$ o%<*< %oo% %%%$%o%%%o%%  $$o  %$ % o%$ %%  $$@$ %%",
"% $    %o%o %oo%>*<oooooo%o %oo%  %%% $ $%$$ $$ @$$%      $ %  %",
"o%  %$ oo%o o%%%>*<%oo%oo%o o%%o $ %% $  $%$ $ $ %     $% $   % ",
"o%:%% %o   oo%% >&<o%ooo $ %5%%   o%o    $ $    $    %%   $   % ",
"%$ %%$ % oo%$  %>&;ooo%o %o $ %%%o%%$$ %$$$  $$ %%o  %% o  o% % ",
"%5oooo%o5oo%%oo%4,;o%o5o55ooo5o%:  ooooo%%$ %%%%o%$%o%% o%  o%% ",
"---O---2-:----2=2242--::%55o5oo%4=-:$::-22=44===4=4=2====444==44"
};
